<svg xmlns="http://www.w3.org/2000/svg" xmlns:xlink="http://www.w3.org/1999/xlink" width="2239.389" height="1825.591" viewBox="0 0 2239.389 1825.591"><defs><linearGradient id="a" x1="0.5" x2="0.5" y2="1" gradientUnits="objectBoundingBox"><stop offset="0" stop-color="#00e279"/><stop offset="1" stop-color="#ec2260"/></linearGradient></defs><g transform="translate(337.407 670.841)" opacity="0.73"><rect width="1366" height="768" fill="rgba(255,255,255,0)"/><g transform="translate(-564.257 180.316)" opacity="0.5"><path d="M154.1,36.832C436.113-116.277,604.05,253.822,549.532,311.061S536.939,620.346,380.644,620.346,82.948,595.766,72.122,505.158-127.92,189.94,154.1,36.832Z" transform="translate(449.267 697.628) rotate(-82)" opacity="0.21" fill="url(#a)"/><path d="M114.3,25.743C323.47-81.27,448.031,177.406,407.594,217.413s-9.34,216.171-125.266,216.171S61.524,416.4,53.493,353.075-94.88,132.756,114.3,25.743Z" transform="translate(551.8 639.038) rotate(-82)" opacity="0.07" fill="url(#a)"/><path d="M73.307,19.082C207.468-60.24,287.359,131.5,261.424,161.153s-5.991,160.233-80.343,160.233S39.46,308.652,34.31,261.71-60.854,98.4,73.307,19.082Z" transform="translate(617.714 573.124) rotate(-82)" opacity="0.1" fill="url(#a)"/><path d="M188.189,48.532C532.6-153.216,737.69,334.456,671.11,409.879S655.731,817.417,464.858,817.417,101.3,785.03,88.078,665.637-156.221,250.28,188.189,48.532Z" transform="translate(343.072 745.232) rotate(-82)" opacity="0.12" fill="url(#a)"/><path d="M224.911,58.021C636.528-183.171,881.641,399.846,802.069,490.015s-18.38,487.217-246.5,487.217-434.5-38.72-450.3-181.456S-186.706,299.213,224.911,58.021Z" transform="translate(265.119 800.161) rotate(-82)" opacity="0.14" fill="url(#a)"/></g><g transform="translate(517.168 -623.684)" opacity="0.5"><path d="M154.1,36.832C436.113-116.277,604.05,253.822,549.532,311.061S536.939,620.346,380.644,620.346,82.948,595.766,72.122,505.158-127.92,189.94,154.1,36.832Z" transform="translate(449.267 697.628) rotate(-82)" opacity="0.21" fill="url(#a)"/><path d="M114.3,25.743C323.47-81.27,448.031,177.406,407.594,217.413s-9.34,216.171-125.266,216.171S61.524,416.4,53.493,353.075-94.88,132.756,114.3,25.743Z" transform="translate(551.8 639.038) rotate(-82)" opacity="0.07" fill="url(#a)"/><path d="M73.307,19.082C207.468-60.24,287.359,131.5,261.424,161.153s-5.991,160.233-80.343,160.233S39.46,308.652,34.31,261.71-60.854,98.4,73.307,19.082Z" transform="translate(617.714 573.124) rotate(-82)" opacity="0.1" fill="url(#a)"/><path d="M188.189,48.532C532.6-153.216,737.69,334.456,671.11,409.879S655.731,817.417,464.858,817.417,101.3,785.03,88.078,665.637-156.221,250.28,188.189,48.532Z" transform="translate(343.072 745.232) rotate(-82)" opacity="0.12" fill="url(#a)"/><path d="M224.911,58.021C636.528-183.171,881.641,399.846,802.069,490.015s-18.38,487.217-246.5,487.217-434.5-38.72-450.3-181.456S-186.706,299.213,224.911,58.021Z" transform="translate(265.119 800.161) rotate(-82)" opacity="0.14" fill="url(#a)"/></g></g></svg>